<svg width="27" height="24" viewBox="0 0 27 24" fill="none" xmlns="http://www.w3.org/2000/svg">
<path d="M6.08409 23.8183V7.87084H0.510711V23.8183H6.08409ZM3.29812 5.69218C5.24166 5.69218 6.45141 4.4676 6.45141 2.93729C6.4152 1.37247 5.24173 0.181885 3.335 0.181885C1.42857 0.181885 0.181885 1.37249 0.181885 2.93729C0.181885 4.46767 1.39134 5.69218 3.26174 5.69218H3.29812ZM9.16894 23.8183H14.7423V14.9124C14.7423 14.4358 14.7785 13.9597 14.9257 13.619C15.3286 12.6667 16.2457 11.6804 17.7853 11.6804C19.802 11.6804 20.6089 13.1428 20.6089 15.2866V23.8181H26.1819V14.674C26.1819 9.77562 23.4323 7.49644 19.7653 7.49644C16.7587 7.49644 15.4386 9.09477 14.7052 10.1834H14.7424V7.8705H9.16906C9.2422 9.36692 9.16906 23.8179 9.16906 23.8179L9.16894 23.8183Z" fill="#645F5F"/>
</svg>
