<svg width="288" height="129" viewBox="0 0 288 129" fill="none" xmlns="http://www.w3.org/2000/svg">
<g filter="url(#filter0_d_101_345)">
<path fill-rule="evenodd" clip-rule="evenodd" d="M220.471 61.5407C225.038 59.8235 227.314 58.1203 226.114 56.9544C225.673 56.5268 224.807 56.2042 223.537 55.9948C223.045 55.9165 222.539 55.8572 222.025 55.8174C222.031 55.7967 222.039 55.7773 222.039 55.7558C222.027 55.5789 221.864 55.4107 221.583 55.286C221.303 55.1612 220.926 55.0892 220.531 55.0847C220.136 55.0803 219.752 55.1437 219.458 55.262C219.164 55.3803 218.982 55.5446 218.95 55.721C218.472 55.7244 217.981 55.7344 217.47 55.7518C217.718 54.6168 217.584 53.6471 217.018 52.937C216.565 52.3661 215.857 51.9746 214.908 51.7725C213.959 51.5704 212.833 51.5711 211.558 51.7739C209.405 52.1172 206.921 53.036 204.446 54.3471C201.945 53.0307 199.441 52.1091 197.273 51.7685C195.997 51.5684 194.872 51.5697 193.926 51.7732C192.977 51.9766 192.272 52.3702 191.825 52.9417C191.28 53.635 191.146 54.572 191.379 55.6688C190.641 55.6367 189.94 55.622 189.272 55.6207C189.146 55.4852 188.927 55.3712 188.646 55.2951C188.366 55.2191 188.039 55.185 187.712 55.1977C187.386 55.2105 187.077 55.2694 186.83 55.366C186.583 55.4626 186.411 55.5919 186.339 55.7351C185.959 55.7691 185.585 55.8143 185.218 55.8703C183.942 56.0717 183.068 56.3889 182.616 56.8132C182.16 57.2375 182.16 57.7421 182.61 58.313C183.354 59.256 185.32 60.3408 188.131 61.427C183.73 63.1121 181.556 64.7732 182.735 65.9182C183.768 66.9208 187.147 67.3049 191.813 67.1115C191.779 67.2721 191.755 67.4294 191.734 67.5833C191.122 67.6763 190.675 67.932 190.675 68.2385C190.675 68.5537 191.147 68.8161 191.79 68.9011C192.056 70.0026 192.91 70.783 194.395 71.0982C195.344 71.3009 196.471 71.2996 197.742 71.0968C199.794 70.7702 202.139 69.923 204.496 68.713C208.326 70.6591 212.074 71.6081 214.611 71.062C216.05 70.7535 216.889 70.0073 217.17 68.9566C217.397 68.9865 217.636 68.9927 217.869 68.9746C218.101 68.9566 218.322 68.9149 218.513 68.8526C218.704 68.7903 218.86 68.7093 218.97 68.6156C219.08 68.5219 219.141 68.4182 219.147 68.3124C219.153 68.2066 219.105 68.1016 219.007 68.0055C218.908 67.9093 218.761 67.8246 218.578 67.7579C218.394 67.6912 218.179 67.6443 217.949 67.6207C217.719 67.5972 217.479 67.5977 217.249 67.6221C217.232 67.4812 217.21 67.3404 217.182 67.1998C219.561 67.2929 221.597 67.2286 223.109 66.9897C224.385 66.7883 225.259 66.471 225.712 66.0461C226.165 65.6224 226.168 65.1178 225.718 64.547C224.996 63.6341 223.135 62.5908 220.471 61.5407Z" fill="white"/>
<path fill-rule="evenodd" clip-rule="evenodd" d="M21.1465 77.2451H12.7854V77.0657C14.0748 77.0303 15.0072 77.0015 15.0072 76.5598V73.1079C15.0072 72.6374 13.8851 72.6227 12.7854 72.6019V72.4226H21.1465V72.6019C20.0244 72.616 18.8769 72.6227 18.8769 73.1079V76.5598C18.8769 77.0162 19.8331 77.0383 21.1465 77.0657V77.2451ZM28.1912 77.0657C29.6241 77.0162 30.2935 76.9667 30.2935 76.4956V73.1152C28.9547 72.6227 28.5737 72.6013 28.2629 72.6013V72.4219H33.3026L41.592 75.4676H41.6398V73.3066C41.6398 72.879 41.3529 72.6441 39.418 72.6006V72.4212H44.5548V72.6006C42.8351 72.6648 42.6916 72.8281 42.6916 73.1708V77.3716H42.0223L31.3931 73.5067H31.3453V76.359C31.3453 76.873 31.8473 77.0089 33.6149 77.0651V77.2444H28.1927V77.0657H28.1912ZM67.6733 76.339C65.9296 76.9312 64.0665 77.3796 61.0095 77.3796C55.4439 77.3796 52.4333 76.2111 52.4333 74.8767C52.4333 73.4298 55.8742 72.3162 60.89 72.3162C63.04 72.3162 64.8793 72.6662 65.4993 72.6662C66.1448 72.6662 66.3599 72.5156 66.5975 72.3382H67.243V74.0073H66.6468C65.8101 73.3863 63.805 72.5524 61.0812 72.5524C57.5939 72.5524 56.6616 73.6426 56.6616 74.8479C56.6616 75.2769 56.8051 75.9615 57.6896 76.4179C58.6921 76.9319 60.5807 77.039 61.3203 77.039C63.1834 77.039 64.9749 76.8248 66.9576 76.1609L67.6733 76.339ZM92.4666 74.8479C92.4666 76.3456 88.9076 77.3796 84.0114 77.3796C79.1152 77.3796 75.5547 76.3456 75.5547 74.8479C75.5547 73.2939 79.4006 72.3162 84.0114 72.3162C88.6208 72.3162 92.4666 73.2939 92.4666 74.8479Z" fill="white"/>
<path fill-rule="evenodd" clip-rule="evenodd" d="M116.589 77.2448H111.693L106.747 75.0123H106.102V76.4096C106.102 76.9812 106.628 77.0019 108.204 77.0655V77.2448H100.131V77.0655C101.755 77.0093 102.232 76.9872 102.232 76.4096V73.2582C102.232 72.6452 101.491 72.6304 100.131 72.6023V72.423H107.822C109.493 72.423 114.557 72.4805 114.557 73.6791C114.557 74.5565 112.098 74.7774 110.807 74.8985L115.609 76.931C115.944 77.0588 116.301 77.0655 116.588 77.0655V77.2448H116.589Z" fill="white"/>
<path fill-rule="evenodd" clip-rule="evenodd" d="M123.347 77.0655C124.517 77.0093 124.565 77.0012 124.732 76.9664C125.019 76.9022 125.354 76.8098 125.354 76.4096V73.2582C125.354 72.6585 124.614 72.6371 123.347 72.6023V72.423H131.039C132.95 72.423 137.296 72.5301 137.296 73.7353C137.296 73.985 137.033 74.4923 135.122 74.8122C133.594 75.0698 132.374 75.0765 129.222 75.0825V76.409C129.222 76.9865 129.676 77.0012 131.324 77.0648V77.2442H123.345V77.0655H123.347Z" fill="white"/>
<path fill-rule="evenodd" clip-rule="evenodd" d="M161.514 74.8479C161.514 76.3456 157.957 77.3796 153.06 77.3796C148.164 77.3796 144.604 76.3456 144.604 74.8479C144.604 73.2939 148.45 72.3162 153.06 72.3162C157.667 72.3162 161.514 73.2939 161.514 74.8479Z" fill="white"/>
<path fill-rule="evenodd" clip-rule="evenodd" d="M185.635 77.2448H180.739L175.795 75.0123H175.149V76.4096C175.149 76.9812 175.675 77.0019 177.25 77.0655V77.2448H169.179V77.0655C170.801 77.0093 171.279 76.9872 171.279 76.4096V73.2582C171.279 72.6452 170.538 72.6304 169.179 72.6023V72.423H176.867C178.539 72.423 183.603 72.4805 183.603 73.6791C183.603 74.5565 181.144 74.7774 179.853 74.8985L184.656 76.931C184.989 77.0588 185.348 77.0655 185.633 77.0655V77.2448H185.635Z" fill="white"/>
<path fill-rule="evenodd" clip-rule="evenodd" d="M208.47 77.2451H200.73V77.0657C202.212 77.0303 202.641 77.0242 202.641 76.7887C202.641 76.5952 201.876 76.0672 201.541 75.8397H196.169C195.498 76.3537 195.118 76.6448 195.118 76.7599C195.118 77.0303 196.263 77.0517 197.077 77.0657V77.2451H192.227V77.0657C193.516 77.0095 193.853 76.7666 194.567 76.2318L199.869 72.3235H200.54L205.865 76.0746C206.94 76.8382 207.322 77.0798 208.468 77.0651V77.2451H208.47Z" fill="white"/>
<path fill-rule="evenodd" clip-rule="evenodd" d="M227.045 77.245H218.518V77.0656C220.263 77.0241 220.835 77.0094 220.835 76.4098V72.6519C219.163 72.6807 216.702 72.7162 216.224 73.8572H215.532L215.606 72.423H229.937L229.984 73.8572H229.292C228.814 72.7162 226.353 72.6807 224.705 72.6519V76.4098C224.705 77.0161 225.28 77.0308 227.045 77.0656V77.245ZM236.52 72.423H250.304V73.8572H249.709C249.158 72.844 247.462 72.6666 244.237 72.6666C242.924 72.6666 242.495 72.6954 242.495 73.0013V74.6563C244.789 74.6643 246.006 74.4783 246.365 73.5936H246.987V76.0042H246.365C246.077 75.1127 244.859 74.8999 242.495 74.8999V76.6253C242.495 76.9391 242.948 77.0255 244.5 77.0255C246.84 77.0255 249.277 76.8401 250.783 75.7626H251.451L250.496 77.2463H236.52V77.067C237.883 77.0255 238.624 77.0027 238.624 76.561V73.109C238.624 72.6385 237.62 72.6238 236.52 72.6031V72.423ZM259.147 77.0656C260.653 77.0656 261.128 76.8588 261.128 76.5951V73.0789C261.128 72.6452 260.078 72.6305 259.147 72.6017V72.4224H266.431C273.12 72.4224 275.294 73.6638 275.294 74.7621C275.294 76.0745 272.714 77.1868 266.694 77.2443H259.147V77.0656Z" fill="white"/>
<path fill-rule="evenodd" clip-rule="evenodd" d="M123.915 53.1609V60.9181L115.951 53.1609H98.966V70.0191H112.237V60.552L123.051 70.0191H137.184V53.1609H123.915ZM80.6512 70.0191H95.1829L84.8317 53.1609H62.7367L52.2869 70.0191H67.0233L68.3651 67.3026H79.2497L80.6512 70.0191Z" fill="white"/>
<path fill-rule="evenodd" clip-rule="evenodd" d="M50.9911 70.0193L40.341 63.1127C51.4886 62.8009 50.6922 58.0747 50.6922 58.0747C49.9243 52.9516 38.052 53.1611 38.052 53.1611H12.7058V70.0193H25.9766V63.9941L35.0668 70.0193H50.9911Z" fill="white"/>
<path fill-rule="evenodd" clip-rule="evenodd" d="M166.049 53.161H144.085V70.0192H165.152C165.152 70.0192 182.034 70.244 181.576 61.7748C181.576 61.7748 182.405 52.9488 166.049 53.161Z" fill="white"/>
<path fill-rule="evenodd" clip-rule="evenodd" d="M204.367 59.7793C203.643 59.7793 202.935 59.8754 202.334 60.0555C201.732 60.2356 201.263 60.4916 200.986 60.7911C200.709 61.0906 200.637 61.4201 200.778 61.738C200.919 62.056 201.268 62.348 201.779 62.5772C202.291 62.8065 202.943 62.9625 203.653 63.0258C204.363 63.089 205.098 63.0566 205.767 62.9325C206.435 62.8085 207.007 62.5984 207.409 62.3289C207.811 62.0593 208.026 61.7425 208.026 61.4183C208.026 61.203 207.931 60.9899 207.748 60.791C207.564 60.5921 207.294 60.4114 206.954 60.2592C206.615 60.1069 206.211 59.9862 205.767 59.9039C205.323 59.8215 204.847 59.7792 204.367 59.7793Z" fill="white"/>
<path fill-rule="evenodd" clip-rule="evenodd" d="M256.422 53.1609L250.849 61.1951L245.077 53.1609H227.16V70.0191H240.432V60.6771C242.232 63.0616 247.266 70.0191 247.266 70.0191H254.235L261.399 60.6771V70.0191H274.671V53.1609H256.422Z" fill="white"/>
</g>
<defs>
<filter id="filter0_d_101_345" x="8.70581" y="51.6195" width="270.588" height="33.7601" filterUnits="userSpaceOnUse" color-interpolation-filters="sRGB">
<feFlood flood-opacity="0" result="BackgroundImageFix"/>
<feColorMatrix in="SourceAlpha" type="matrix" values="0 0 0 0 0 0 0 0 0 0 0 0 0 0 0 0 0 0 127 0" result="hardAlpha"/>
<feOffset dy="4"/>
<feGaussianBlur stdDeviation="2"/>
<feComposite in2="hardAlpha" operator="out"/>
<feColorMatrix type="matrix" values="0 0 0 0 0 0 0 0 0 0 0 0 0 0 0 0 0 0 0.25 0"/>
<feBlend mode="normal" in2="BackgroundImageFix" result="effect1_dropShadow_101_345"/>
<feBlend mode="normal" in="SourceGraphic" in2="effect1_dropShadow_101_345" result="shape"/>
</filter>
</defs>
</svg>
