<svg width="27" height="26" viewBox="0 0 27 26" fill="none" xmlns="http://www.w3.org/2000/svg">
<path fill-rule="evenodd" clip-rule="evenodd" d="M7.73127 0.078C9.11755 0.0141818 9.55955 0 13.0908 0C16.6221 0 17.0641 0.0153636 18.4492 0.078C19.8343 0.140636 20.7797 0.361636 21.607 0.681909C22.4733 1.00927 23.2592 1.521 23.9092 2.18282C24.571 2.83164 25.0815 3.61636 25.4077 4.48382C25.7292 5.31109 25.949 6.25655 26.0128 7.63927C26.0766 9.02791 26.0908 9.46991 26.0908 13C26.0908 16.5313 26.0755 16.9733 26.0128 18.3595C25.9502 19.7423 25.7292 20.6877 25.4077 21.515C25.0815 22.3826 24.5702 23.1686 23.9092 23.8184C23.2592 24.4802 22.4733 24.9907 21.607 25.3169C20.7797 25.6384 19.8343 25.8582 18.4515 25.922C17.0641 25.9858 16.6221 26 13.0908 26C9.55955 26 9.11755 25.9846 7.73127 25.922C6.34855 25.8594 5.40309 25.6384 4.57582 25.3169C3.70827 24.9907 2.92224 24.4793 2.27246 23.8184C1.61109 23.1692 1.09928 22.3835 0.772729 21.5162C0.452457 20.6889 0.232638 19.7435 0.16882 18.3607C0.105002 16.9721 0.0908203 16.5301 0.0908203 13C0.0908203 9.46873 0.106184 9.02673 0.16882 7.64164C0.231457 6.25655 0.452457 5.31109 0.772729 4.48382C1.09977 3.61646 1.61196 2.83082 2.27364 2.18164C2.9225 1.52041 3.70774 1.00861 4.57464 0.681909C5.40191 0.361636 6.34737 0.141818 7.73009 0.078H7.73127ZM18.344 2.418C16.9731 2.35536 16.5618 2.34236 13.0908 2.34236C9.61982 2.34236 9.20855 2.35536 7.83764 2.418C6.56955 2.47591 5.88173 2.68745 5.42318 2.86591C4.81691 3.10227 4.38318 3.38236 3.92818 3.83736C3.49687 4.25697 3.16494 4.76779 2.95673 5.33236C2.77827 5.79091 2.56673 6.47873 2.50882 7.74682C2.44618 9.11773 2.43318 9.529 2.43318 13C2.43318 16.471 2.44618 16.8823 2.50882 18.2532C2.56673 19.5213 2.77827 20.2091 2.95673 20.6676C3.16473 21.2314 3.49682 21.7431 3.92818 22.1626C4.34773 22.594 4.85946 22.9261 5.42318 23.1341C5.88173 23.3125 6.56955 23.5241 7.83764 23.582C9.20855 23.6446 9.61864 23.6576 13.0908 23.6576C16.563 23.6576 16.9731 23.6446 18.344 23.582C19.6121 23.5241 20.2999 23.3125 20.7585 23.1341C21.3647 22.8977 21.7985 22.6176 22.2535 22.1626C22.6848 21.7431 23.0169 21.2314 23.2249 20.6676C23.4034 20.2091 23.6149 19.5213 23.6728 18.2532C23.7355 16.8823 23.7485 16.471 23.7485 13C23.7485 9.529 23.7355 9.11773 23.6728 7.74682C23.6149 6.47873 23.4034 5.79091 23.2249 5.33236C22.9885 4.72609 22.7085 4.29236 22.2535 3.83736C21.8338 3.40608 21.323 3.07416 20.7585 2.86591C20.2999 2.68745 19.6121 2.47591 18.344 2.418ZM11.4304 17.0075C12.3577 17.3936 13.3903 17.4457 14.3517 17.1549C15.3132 16.8642 16.1439 16.2487 16.702 15.4136C17.2601 14.5784 17.5109 13.5754 17.4116 12.5759C17.3123 11.5763 16.8691 10.6422 16.1576 9.93318C15.7041 9.47993 15.1557 9.13287 14.5519 8.91699C13.9482 8.70111 13.3041 8.62179 12.666 8.68473C12.0278 8.74767 11.4116 8.9513 10.8617 9.28097C10.3117 9.61064 9.8417 10.0582 9.48545 10.5913C9.1292 11.1244 8.89559 11.7299 8.80143 12.3641C8.70727 12.9984 8.75491 13.6456 8.94091 14.2592C9.12692 14.8729 9.44666 15.4376 9.87713 15.9129C10.3076 16.3881 10.8381 16.7619 11.4304 17.0075ZM8.36591 8.27509C8.98639 7.65461 9.72302 7.16241 10.5337 6.82661C11.3444 6.49081 12.2133 6.31797 13.0908 6.31797C13.9683 6.31797 14.8372 6.4908 15.6479 6.82661C16.4586 7.16241 17.1952 7.65461 17.8157 8.27509C18.4362 8.89557 18.9284 9.6322 19.2642 10.4429C19.6 11.2536 19.7729 12.1225 19.7729 13C19.7729 13.8775 19.6 14.7464 19.2642 15.5571C18.9284 16.3678 18.4362 17.1044 17.8157 17.7249C16.5626 18.978 14.863 19.682 13.0908 19.682C11.3186 19.682 9.61903 18.978 8.36591 17.7249C7.11279 16.4718 6.40879 14.7722 6.40879 13C6.40879 11.2278 7.11279 9.52821 8.36591 8.27509ZM21.2548 7.31309C21.4086 7.16805 21.5317 6.99362 21.6168 6.80015C21.702 6.60668 21.7474 6.39809 21.7505 6.18674C21.7536 5.97538 21.7142 5.76556 21.6348 5.56968C21.5553 5.37381 21.4373 5.19588 21.2879 5.04641C21.1384 4.89694 20.9605 4.77899 20.7646 4.69952C20.5687 4.62006 20.3589 4.5807 20.1475 4.58378C19.9362 4.58686 19.7276 4.63232 19.5341 4.71746C19.3407 4.8026 19.1662 4.92569 19.0212 5.07945C18.7391 5.37849 18.5847 5.77569 18.5906 6.18674C18.5966 6.59778 18.7626 6.99031 19.0533 7.281C19.344 7.57168 19.7365 7.73763 20.1475 7.74363C20.5586 7.74962 20.9558 7.59518 21.2548 7.31309Z" fill="#645F5F"/>
</svg>
